<?xml version="1.0" encoding="utf-8"?><svg viewBox="0 0 100 100" xmlns="http://www.w3.org/2000/svg" width="47px" height="47px" xmlns:xlink="http://www.w3.org/1999/xlink" style="width:100%;height:100%;background-color:rgb(255, 255, 255);animation-play-state:paused" ><g class="ldl-scale" style="transform-origin:50% 50% 0px;transform:rotate(0deg) scale(0.8);animation-play-state:paused" ><g style="animation-play-state:paused" ><path stroke-miterlimit="10" stroke-width="3" stroke="#000" fill="#fcee21" d="M36.2 53s2.9-4.4 6.4-4.3c0 0 .7.5.3 7.8h0c-3.7.5-6.7-3.5-6.7-3.5z" style="stroke:rgb(0, 0, 0);fill:rgb(252, 238, 33);animation-play-state:paused" ></path>
<path stroke-miterlimit="10" stroke-width="3" stroke="#000" fill="#fff" d="M55.9 72.7c.7.3 9.7 3.4 18.4-1.3 4.7-2.6 7.2-6.3 11.1-12.2 3.2-4.9 5.2-9.3 6.5-12.4-7.3 1.5-11.8 0-14.6-1.5-5.3-2.9-5.5-7-11.4-9.4-5.8-2.4-11.3-.5-12-.3-7 2.5-9.8 8.8-10.4 10.1-4 9 .6 17.3 1 17.9 3.6 6.2 9.4 8.4 11.4 9.1z" style="stroke:rgb(0, 0, 0);fill:rgb(255, 255, 255);animation-play-state:paused" ></path>
<ellipse stroke-miterlimit="10" stroke-width="2" stroke="#000" ry="2.3" rx="2.6" cy="47.6" cx="55.2" transform="rotate(-27.514 55.241 47.616)" style="stroke:rgb(0, 0, 0);animation-play-state:paused" ></ellipse>
<g style="animation-play-state:paused" ><path stroke-miterlimit="10" stroke-width="3" stroke="#000" fill="#047aed" d="M64.4 78.5c-1.2-4.2-2.3-8.3-3.5-12.5 3.6 1.9 7.1 3.9 10.7 5.8 1.7 2.2 1.6 5.5-.4 7.4-1.9 1.8-5 1.5-6.8-.7z" style="stroke:rgb(0, 0, 0);fill:#047aed;animation-play-state:paused" ></path>
<path stroke-miterlimit="10" stroke-width="3" stroke="#000" fill="#047aed" d="M72.6 68.3L61.8 62l11.4-3.9c2.7.3 4.8 2.8 4.6 5.6-.2 2.7-2.5 4.8-5.2 4.6z" style="stroke:rgb(0, 0, 0);fill:#047aed;animation-play-state:paused" ></path>
<path stroke-miterlimit="10" stroke-width="3" stroke="#000" fill="#047aed" d="M72.8 54.3c-3.9 1.2-7.8 2.4-11.8 3.6 1.8-3.8 3.6-7.6 5.4-11.3 2.1-1.8 5.2-1.6 7 .5 1.8 2.1 1.5 5.4-.6 7.2z" style="stroke:rgb(0, 0, 0);fill:#047aed;animation-play-state:paused" ></path></g></g>

<metadata xmlns:d="https://loading.io/stock/" style="animation-play-state:paused" ><d:name style="animation-play-state:paused" >bird</d:name>


<d:tags style="animation-play-state:paused" >bird,wished,love,peace,christmas</d:tags>


<d:license style="animation-play-state:paused" >by</d:license>


<d:slug style="animation-play-state:paused" >pc83pc</d:slug></metadata></g><!-- generated by https://loading.io/ --></svg>